<?xml version="1.0" standalone="no"?><svg xmlns="http://www.w3.org/2000/svg" viewBox="0 0 1440 320"><path fill="#1d1d20" fill-opacity="1" d="M0,32L11.4,74.7C22.9,117,46,203,69,197.3C91.4,192,114,96,137,64C160,32,183,64,206,90.7C228.6,117,251,139,274,128C297.1,117,320,75,343,74.7C365.7,75,389,117,411,154.7C434.3,192,457,224,480,234.7C502.9,245,526,235,549,229.3C571.4,224,594,224,617,186.7C640,149,663,75,686,85.3C708.6,96,731,192,754,208C777.1,224,800,160,823,117.3C845.7,75,869,53,891,64C914.3,75,937,117,960,149.3C982.9,181,1006,203,1029,218.7C1051.4,235,1074,245,1097,218.7C1120,192,1143,128,1166,112C1188.6,96,1211,128,1234,165.3C1257.1,203,1280,245,1303,240C1325.7,235,1349,181,1371,176C1394.3,171,1417,213,1429,234.7L1440,256L1440,320L1428.6,320C1417.1,320,1394,320,1371,320C1348.6,320,1326,320,1303,320C1280,320,1257,320,1234,320C1211.4,320,1189,320,1166,320C1142.9,320,1120,320,1097,320C1074.3,320,1051,320,1029,320C1005.7,320,983,320,960,320C937.1,320,914,320,891,320C868.6,320,846,320,823,320C800,320,777,320,754,320C731.4,320,709,320,686,320C662.9,320,640,320,617,320C594.3,320,571,320,549,320C525.7,320,503,320,480,320C457.1,320,434,320,411,320C388.6,320,366,320,343,320C320,320,297,320,274,320C251.4,320,229,320,206,320C182.9,320,160,320,137,320C114.3,320,91,320,69,320C45.7,320,23,320,11,320L0,320Z"></path></svg>